<?xml version="1.0" encoding="utf-8"?>
<!-- Generator: Adobe Illustrator 17.0.0, SVG Export Plug-In . SVG Version: 6.00 Build 0)  -->
<!DOCTYPE svg PUBLIC "-//W3C//DTD SVG 1.1//EN" "http://www.w3.org/Graphics/SVG/1.1/DTD/svg11.dtd">
<svg version="1.1" xmlns="http://www.w3.org/2000/svg" xmlns:xlink="http://www.w3.org/1999/xlink" x="0px" y="0px" width="45px"
	 height="45px" viewBox="0 0 45 45" enable-background="new 0 0 45 45" xml:space="preserve">
<g id="Layer_1">
	<g>
		<g>
			<path fill="#A68F6B" d="M22.5,0C10.074,0,0,10.073,0,22.5S10.074,45,22.5,45S45,34.927,45,22.5S34.926,0,22.5,0z M22.489,42.001
				c-10.771,0-19.5-8.729-19.5-19.5c0-10.77,8.729-19.5,19.5-19.5s19.499,8.73,19.499,19.5
				C41.988,33.271,33.26,42.001,22.489,42.001z"/>
		</g>
	</g>
	<circle fill="#A68F6B" cx="22.958" cy="22.042" r="20.958"/>
</g>
<g id="Layer_2">
	<path fill="#FFFFFF" d="M30.523,17.524c-0.59,0.262-1.225,0.439-1.891,0.518c0.68-0.407,1.202-1.053,1.447-1.821
		c-0.636,0.377-1.341,0.651-2.09,0.799c-0.6-0.64-1.456-1.04-2.403-1.04c-1.818,0-3.292,1.474-3.292,3.292
		c0,0.258,0.029,0.509,0.085,0.75c-2.736-0.137-5.162-1.448-6.785-3.439c-0.283,0.486-0.446,1.052-0.446,1.655
		c0,1.142,0.581,2.15,1.464,2.74c-0.54-0.017-1.047-0.165-1.491-0.412c0,0.014,0,0.028,0,0.041c0,1.595,1.135,2.926,2.641,3.228
		c-0.276,0.075-0.567,0.115-0.867,0.115c-0.212,0-0.418-0.021-0.619-0.059c0.419,1.308,1.635,2.26,3.075,2.286
		c-1.127,0.883-2.546,1.409-4.088,1.409c-0.266,0-0.528-0.016-0.785-0.046c1.457,0.934,3.187,1.479,5.046,1.479
		c6.055,0,9.366-5.016,9.366-9.366c0-0.143-0.003-0.285-0.01-0.426C29.523,18.764,30.081,18.184,30.523,17.524z"/>
</g>
</svg>
