<?xml version="1.0" encoding="utf-8"?>
<!-- Generator: Adobe Illustrator 16.0.4, SVG Export Plug-In . SVG Version: 6.00 Build 0)  -->
<!DOCTYPE svg PUBLIC "-//W3C//DTD SVG 1.1//EN" "http://www.w3.org/Graphics/SVG/1.1/DTD/svg11.dtd">
<svg version="1.1" id="Layer_1" xmlns="http://www.w3.org/2000/svg" xmlns:xlink="http://www.w3.org/1999/xlink" x="0px" y="0px"
	 width="40px" height="40px" viewBox="0 0 40 40" enable-background="new 0 0 40 40" xml:space="preserve">
<g>
	<g>
		<path fill="#A68F6B" d="M20,0C8.954,0,0,8.955,0,20c0,11.046,8.955,20,20,20s20-8.953,20-20C40,8.955,31.045,0,20,0z
			 M19.99,37.334c-9.574,0-17.334-7.76-17.334-17.333c0-9.573,7.761-17.333,17.334-17.333c9.572,0,17.334,7.76,17.334,17.333
			C37.324,29.574,29.562,37.334,19.99,37.334z"/>
	</g>
</g>
<g>
	<g>
		<path fill="#A68F6B" d="M21.209,17.365l0.004-1.317c0-0.687,0.049-1.055,1.041-1.055h1.324v-2.634h-2.121
			c-2.547,0-3.132,1.308-3.132,3.457l0.002,1.549l-1.922,0.002V20h1.922v7.641h2.882L21.211,20l2.102-0.002l0.281-2.633H21.209z"/>
	</g>
</g>
</svg>
