<?xml version="1.0" encoding="utf-8"?>
<!-- Generator: Adobe Illustrator 16.0.4, SVG Export Plug-In . SVG Version: 6.00 Build 0)  -->
<!DOCTYPE svg PUBLIC "-//W3C//DTD SVG 1.1//EN" "http://www.w3.org/Graphics/SVG/1.1/DTD/svg11.dtd">
<svg version="1.1" id="Layer_1" xmlns="http://www.w3.org/2000/svg" xmlns:xlink="http://www.w3.org/1999/xlink" x="0px" y="0px"
	 width="40px" height="40px" viewBox="0 0 40 40" enable-background="new 0 0 40 40" xml:space="preserve">
<g>
	<g>
		<path fill="#A68F6B" d="M20,0C8.954,0,0,8.955,0,20c0,11.046,8.955,20,20,20c11.045,0,20-8.953,20-20C40,8.955,31.045,0,20,0z
			 M19.99,37.334c-9.574,0-17.334-7.76-17.334-17.333S10.417,2.668,19.99,2.668c9.572,0,17.334,7.76,17.334,17.333
			C37.324,29.574,29.562,37.334,19.99,37.334z"/>
	</g>
</g>
<circle fill="#A68F6B" cx="19.554" cy="20.409" r="1.474"/>
<path fill="#A68F6B" d="M24.033,27.513h-9.067c-1.573,0-2.852-1.282-2.852-2.859v-5.921h3.585c-0.262,0.557-0.409,1.178-0.409,1.833
	c0,2.38,1.93,4.315,4.304,4.315c2.372,0,4.303-1.936,4.303-4.315c0-0.656-0.147-1.277-0.409-1.833h3.399v5.921
	C26.887,26.23,25.606,27.513,24.033,27.513z"/>
<path fill="#A68F6B" d="M24.033,12.487h-9.067c-1.573,0-2.852,1.458-2.852,3.25v1.777h4.988c0.704-0.572,1.563-0.909,2.491-0.909
	c0.927,0,1.786,0.337,2.491,0.909h4.803v-1.777C26.887,13.946,25.606,12.487,24.033,12.487z M24.992,15.909
	c0,0.229-0.187,0.416-0.415,0.416h-1.284c-0.228,0-0.417-0.187-0.417-0.416v-1.284c0-0.229,0.189-0.416,0.417-0.416h1.284
	c0.229,0,0.415,0.188,0.415,0.416V15.909z"/>
</svg>
