<?xml version="1.0" encoding="utf-8"?>
<!-- Generator: Adobe Illustrator 16.0.4, SVG Export Plug-In . SVG Version: 6.00 Build 0)  -->
<!DOCTYPE svg PUBLIC "-//W3C//DTD SVG 1.1//EN" "http://www.w3.org/Graphics/SVG/1.1/DTD/svg11.dtd">
<svg version="1.1" id="Layer_1" xmlns="http://www.w3.org/2000/svg" xmlns:xlink="http://www.w3.org/1999/xlink" x="0px" y="0px"
	 width="45px" height="45px" viewBox="0 0 45 45" enable-background="new 0 0 45 45" xml:space="preserve">
<g>
	<g>
		<path fill="#A68F6B" d="M22.5,0C10.074,0,0,10.073,0,22.5S10.074,45,22.5,45S45,34.927,45,22.5S34.926,0,22.5,0z M22.489,42.001
			c-10.771,0-19.5-8.729-19.5-19.5c0-10.77,8.729-19.5,19.5-19.5s19.499,8.73,19.499,19.5C41.988,33.271,33.26,42.001,22.489,42.001
			z M30.047,16.242c-0.634,0.376-1.336,0.647-2.084,0.795c-0.599-0.636-1.451-1.036-2.396-1.036c-1.812,0-3.281,1.47-3.281,3.283
			c0,0.257,0.028,0.507,0.085,0.748c-2.729-0.138-5.146-1.443-6.766-3.43c-0.283,0.484-0.445,1.048-0.445,1.65
			c0,1.139,0.58,2.143,1.461,2.731c-0.539-0.017-1.045-0.165-1.486-0.411c-0.001,0.014-0.001,0.028-0.001,0.041
			c0,1.591,1.132,2.917,2.634,3.219c-0.275,0.074-0.566,0.115-0.865,0.115c-0.212,0-0.417-0.021-0.617-0.059
			c0.417,1.303,1.63,2.252,3.066,2.278c-1.124,0.879-2.539,1.403-4.077,1.403c-0.265,0-0.526-0.016-0.783-0.045
			C15.943,28.457,17.67,29,19.523,29c6.038,0,9.34-5.001,9.34-9.337c0-0.144-0.004-0.285-0.01-0.426
			c0.641-0.463,1.196-1.039,1.638-1.698c-0.589,0.26-1.222,0.437-1.886,0.517C29.281,17.65,29.803,17.009,30.047,16.242z"/>
	</g>
</g>
</svg>
