<?xml version="1.0" encoding="utf-8"?>
<!-- Generator: Adobe Illustrator 17.0.0, SVG Export Plug-In . SVG Version: 6.00 Build 0)  -->
<!DOCTYPE svg PUBLIC "-//W3C//DTD SVG 1.1//EN" "http://www.w3.org/Graphics/SVG/1.1/DTD/svg11.dtd">
<svg version="1.1" id="Layer_1" xmlns="http://www.w3.org/2000/svg" xmlns:xlink="http://www.w3.org/1999/xlink" x="0px" y="0px"
	 width="130.704px" height="130.483px" viewBox="0 0 130.704 130.483" enable-background="new 0 0 130.704 130.483"
	 xml:space="preserve">
<g>
	<g>
		<path fill="#A68F6B" d="M111.791,0c-10.445,0-18.913,8.468-18.913,18.912v46.219c0,15.178-12.349,27.527-27.526,27.527
			c-15.179,0-27.527-12.35-27.527-27.527V18.912C37.825,8.468,29.358,0,18.913,0C8.468,0,0,8.468,0,18.912v46.219
			c0,36.035,29.317,65.352,65.353,65.352c36.035,0,65.351-29.316,65.351-65.352V18.912C130.704,8.468,122.237,0,111.791,0z
			 M65.352,84.154c10.446,0,18.912-8.468,18.912-18.912v-46.33C84.264,8.468,75.798,0,65.352,0C54.908,0,46.439,8.468,46.439,18.912
			v46.33C46.44,75.686,54.908,84.154,65.352,84.154z"/>
	</g>
</g>
</svg>
